<?xml version="1.0" encoding="UTF-8" standalone="no"?>
<!-- Created with Inkscape (http://www.inkscape.org/) -->

<svg
   version="1.1"
   id="svg1"
   width="595.5"
   height="99.178711"
   viewBox="0 0 595.5 99.178711"
   sodipodi:docname="Gemini_Generated_Image_6ivay86ivay86iva(1).png"
   inkscape:export-filename="v_logo"
   inkscape:export-xdpi="96"
   inkscape:export-ydpi="96"
   xmlns:inkscape="http://www.inkscape.org/namespaces/inkscape"
   xmlns:sodipodi="http://sodipodi.sourceforge.net/DTD/sodipodi-0.dtd"
   xmlns="http://www.w3.org/2000/svg"
   xmlns:svg="http://www.w3.org/2000/svg">
  <defs
     id="defs1" />
  <sodipodi:namedview
     id="namedview1"
     pagecolor="#ffffff"
     bordercolor="#000000"
     borderopacity="0.25"
     inkscape:showpageshadow="2"
     inkscape:pageopacity="0.0"
     inkscape:pagecheckerboard="0"
     inkscape:deskcolor="#d1d1d1">
    <inkscape:page
       x="0"
       y="0"
       width="595.5"
       height="99.178711"
       id="page2"
       margin="0"
       bleed="0" />
  </sodipodi:namedview>
  <path
     style="fill:#000000"
     d="M 117.87943,87.66071 111.25886,75.5 91.59393,75.22874 71.92899,74.95748 68.96449,70.28296 C 67.33402,67.71197 66,65.24654 66,64.80422 66,64.3619 74.55,64 85,64 c 10.45,0 19,-0.2766 19,-0.61467 0,-0.33807 -1.19652,-2.81307 -2.65893,-5.5 L 98.68214,53 H 83.35792 68.03369 L 65.5,48 62.96631,43 H 77.48315 C 87.84465,43 92,42.66734 92,41.83786 c 0,-0.63918 -1.14397,-3.11418 -2.54215,-5.5 L 86.91569,32 H 60.70056 34.48544 L 31.74272,27.45924 C 30.23422,24.96183 29,22.4943 29,21.97585 29,21.41663 39.58973,20.92477 55.03498,20.7666 L 81.06995,20.5 78.057,15.75 75.04405,11 58.27202,10.998 41.5,10.996 38.75,6.6429303 C 37.2375,4.2491703 36,1.7749703 36,1.1451403 36,0.31388031 43.23373,3.100464e-7 62.39114,3.100464e-7 H 88.78229 L 97.04288,15.25 c 4.54332,8.3875 11.52646,21.1 15.51807,28.25 3.99162,7.15 8.28801,15.1375 9.54754,17.75 1.25952,2.6125 2.53787,4.74245 2.84078,4.73322 0.3029,-0.009 3.13922,-4.62173 6.30293,-10.25 C 134.41591,50.10495 140.82903,38.975 145.50356,31 150.1781,23.025 156.11198,12.7875 158.68996,8.2500003 L 163.37721,3.100464e-7 h 9.3114 C 178.96849,3.100464e-7 182,0.36956031 182,1.1351303 182,2.1661103 174.8069,14.63491 152.94513,51.5 c -4.24011,7.15 -12.07384,20.65 -17.4083,30 -5.33446,9.35 -10.00003,17.29732 -10.36792,17.66071 -0.3679,0.36339 -3.64817,-4.81161 -7.28948,-11.5 z M 282.7175,77.96694 c -12.3064,-3.08821 -19.52363,-13.33549 -18.48709,-26.24863 1.20462,-15.00693 11.40074,-23.63637 26.62631,-22.53506 12.6976,0.91847 20.58043,8.40285 22.11479,20.99697 0.42347,3.47588 0.57656,6.65728 0.3402,7.06978 C 313.07535,57.6625 305.03352,58 295.44098,58 280.37657,58 278,58.21059 278,59.54545 c 0,2.50674 4.45809,6.23154 8.88505,7.4236 4.44083,1.19579 9.94476,0.255 13.61753,-2.32767 1.81254,-1.27455 2.37343,-1.08763 5.91009,1.96958 3.79847,3.28351 3.85749,3.43303 2.11527,5.35817 -4.61765,5.10245 -17.47357,8.0899 -25.81044,5.99781 z M 300,48.07673 c 0,-1.05781 -1.165,-3.30781 -2.58889,-5 C 295.10051,40.33074 294.23347,40 289.34536,40 c -3.01226,0 -6.3426,0.46334 -7.40075,1.02964 C 280.04181,42.04799 277,46.92062 277,48.95034 277,49.62237 281.13729,50 288.5,50 299.18041,50 300,49.86293 300,48.07673 Z m 61.96938,29.44715 c -19.61436,-6.30546 -23.13276,-34.10915 -5.68164,-44.89836 3.76287,-2.3264 6.22089,-3.02176 11.97357,-3.38725 10.58166,-0.67231 15.21648,0.89188 21.37641,7.21422 4.14377,4.25302 5.35904,6.30516 6.28171,10.60745 2.7129,12.6498 -3.3176,24.86586 -14.60281,29.58113 -5.11718,2.13809 -14.15903,2.55067 -19.34724,0.88281 z M 377.90521,64.4263 c 7.93083,-6.67335 5.88726,-20.35951 -3.50274,-23.45849 -4.98601,-1.64553 -11.77967,0.94338 -14.0996,5.37303 -3.60145,6.87656 -0.92738,17.25161 5.07073,19.67372 4.29129,1.73288 9.34602,1.09224 12.53161,-1.58826 z M 418,77.04591 c -6.70188,-2.30154 -13.40356,-9.12731 -15.09356,-15.37302 -1.88737,-6.97513 -0.66931,-16.73383 2.71826,-21.7778 4.52339,-6.73517 11.13217,-10.29345 19.94448,-10.73845 4.10175,-0.20713 8.88083,0.1668 10.9781,0.85896 C 440.9804,31.47867 448,37.54749 448,39.9171 c 0,1.01281 -1.84654,2.58149 -4.63142,3.93449 l -4.63142,2.25011 -2.20845,-2.07473 C 432.17901,39.94064 425.4652,39.39739 420.33615,42.71675 417.63971,44.4618 415,49.87858 415,53.66673 415,60.04921 421.65534,67 427.76652,67 c 2.3611,0 7.49039,-2.0513 10.34384,-4.1367 1.28152,-0.93658 2.5578,-0.71826 6.25,1.0691 2.5518,1.23531 4.63964,2.61417 4.63964,3.06414 0,0.44997 -2.25945,2.84956 -5.021,5.33243 -7.4418,6.69082 -15.80799,8.20985 -25.979,4.71694 z m 54.3264,0.93855 c -7.97781,-1.63257 -15.25103,-7.16648 -17.96926,-13.67212 -2.0112,-4.81349 -1.70901,-16.95931 0.54271,-21.81234 2.29362,-4.94334 7.40217,-9.89897 12.31803,-11.94932 4.80181,-2.00277 15.7671,-2.00151 20.56424,0.002 8.28266,3.45986 13.29327,11.15861 13.55322,20.82439 L 501.5,57.5 484.25,57.77361 C 468.39943,58.02503 467,58.19342 467,59.8493 c 0,2.65871 4.26579,6.19833 8.65974,7.18558 4.30806,0.96796 10.18232,-0.0462 13.72919,-2.37015 2.22436,-1.45745 2.51022,-1.364 5.60971,1.83387 1.88442,1.94422 3.02951,3.98567 2.70703,4.82603 -0.86054,2.24253 -10.62348,6.47288 -16.20567,7.02203 -2.75,0.27053 -6.87812,0.10754 -9.1736,-0.3622 z M 489,48.07673 c 0,-3.09671 -4.76263,-7.94157 -8.4951,-8.64179 -4.89559,-0.91842 -10.31066,1.19885 -12.57856,4.91815 C 464.59201,49.82133 464.89493,50 477.5,50 488.18041,50 489,49.86293 489,48.07673 Z M 224.53006,73.75 C 223.60216,71.4125 217.9283,57.93632 211.92148,43.80293 205.91467,29.66954 201,17.38732 201,16.50912 c 0,-1.3404 1.14377,-1.54957 7.12449,-1.30293 L 215.24897,15.5 223.89832,36 c 4.75715,11.275 9.04308,21.12786 9.5243,21.89525 0.88068,1.40439 3.94006,-4.34075 8.73073,-16.39525 1.09289,-2.75 4.02267,-9.8375 6.51062,-15.75 L 253.1875,15 h 7.02288 c 6.22664,0 6.96192,0.19841 6.48516,1.75 -0.29574,0.9625 -5.68181,13.45 -11.96904,27.75 -6.28723,14.3 -11.98264,27.6875 -12.65646,29.75 L 240.8449,78 h -7.31387 -7.31387 z m 97.94262,3.0394 c -0.27579,-0.71869 -0.38246,-15.70281 -0.23706,-33.29805 L 322.5,11.5 h 6.5 6.5 v 33 33 l -6.26294,0.29805 c -4.45601,0.21206 -6.40762,-0.0789 -6.76438,-1.00865 z m 183.79884,-0.99084 c 0.51433,-2.2594 7.60497,-18.61952 17.46581,-40.29856 2.75188,-6.05 5.94531,-13.15755 7.09652,-15.79455 l 2.0931,-4.79454 7.20212,0.29454 7.20213,0.29455 9.37331,21 c 5.15533,11.55 11.35953,25.40979 13.78712,30.79953 3.26088,7.23981 4.07213,9.93064 3.10576,10.30147 -0.71942,0.27607 -4.1819,0.36628 -7.69438,0.20047 L 559.51667,77.5 557.00834,71.26107 554.5,65.02214 539.79679,65.01107 525.09359,65 l -2.0359,4.75 c -3.37866,7.88285 -3.17031,7.72371 -10.53794,8.04856 -6.61208,0.29153 -6.75915,0.24445 -6.24823,-2 z M 549,52.61906 C 549,50.20483 540.20978,30.45688 539.46616,31.2005 538.75737,31.9093 531,50.96263 531,51.99475 531,52.59395 534.63532,53 540,53 c 4.95,0 9,-0.17142 9,-0.38094 z M 582,46.5 V 14.90862 l 6.75,0.29569 6.75,0.29569 v 31 31 l -6.75,0.29569 -6.75,0.29569 z M 35.71589,53.13169 c -1.91324,-0.4341 -3.55544,-1.99302 -5.25,-4.98376 C 29.10965,45.75429 28,43.61679 28,43.39793 c 0,-0.21886 4.8375,-0.38984 10.75,-0.37996 l 10.75,0.018 3.17875,4.86276 3.17876,4.86275 -3.67876,0.60827 c -4.47336,0.73967 -12.6765,0.62106 -16.46286,-0.23802 z m 85.6746,-12.40807 -2.58778,-5.27637 9.97902,-17.47363 9.97902,-17.47361969 6.11962,-0.29772 c 3.3658,-0.16374 6.11963,0.03164 6.11963,0.43419 C 151,2.0014303 125.55192,46 124.76245,46 c -0.4313,0 -1.94868,-2.37437 -3.37196,-5.27638 z M 2.74272,6.4592403 C 1.23422,3.9618303 0,1.4868303 0,0.95924031 0,0.40093031 4.94911,3.100464e-7 11.84107,3.100464e-7 H 23.68214 L 26.34107,4.8853303 C 27.80348,7.5722603 29,10.04726 29,10.38533 29,10.7234 23.70922,11 17.24272,11 H 5.48544 Z"
     id="path1"
     inkscape:label="VeloceAI"
     sodipodi:nodetypes="scccssssscccccssscccsssccccccsscssscssscsssssssssssssssssssssssssssssssssssssssssssscssssssssssssscscssssssssssssssssscsssscsssscccssscccccssssscccsssscccccsssssssscccccccccsssscccsssscccssssssscssscs" />
</svg>
